<?xml version="1.0" encoding="utf-8"?>
<?xml-stylesheet type="text/xsl" href="rss1.xsl"?>
<rss version="2.0" xmlns:atom="http://www.w3.org/2005/Atom" xmlns:content="http://purl.org/rss/1.0/modules/content/" xmlns:dc="http://purl.org/dc/elements/1.1/" xmlns:media="http://search.yahoo.com/mrss/">
<channel>
 <title>Getty</title>
 <link>http://www.gettyimg.com/</link>
 <atom:link href="http://www.gettyimg.com/" rel="self" type="application/rss+xml" />

 
                <item>
                <title><![CDATA[【Apple Music】WEB-RiP - Linkin Park - Heavy (feat. Kiiara) [Apple Music WEB-DL 1080p HD]]]></title>
                <link><![CDATA[https://sharemania.us/threads/linkin-park-heavy-feat-kiiara-apple-music-web-dl-1080p-hd.243405/]]></link>
                <description><![CDATA[<article>
<blockquote class="messageText SelectQuoteContainer ugc baseHtml">
<span style="font-size: 22px"><b>Linkin Park - Heavy (feat. Kiiara) [Apple Music WEB-DL 1080p HD]</b></span><br>
<br>
<img src="https://imgur.com/Q6Of2ep.jpg" class="bbCodeImage LbImage" alt="[​IMG]" data-url="https://imgur.com/Q6Of2ep.jpg" style=""><br>
<br>
<div class="bbCodeBlock bbCodeCode">
<div class="type">Code:</div>
<pre>General
Format                         : MPEG-4
Codec ID                       : M4V  (isom/iso4/M4V /mp42)
File size                      : 139 MiB
Duration                       : 2 min 48 s
Overall bit rate mode          : Variable
Overall bit rate               : 6 941 kb/s
Movie name                     : Heavy (feat. Kiiara)
Performer                      : LINKIN PARK
Genre                          : Pop
ContentType                    : Music Video
Recorded date                  : UTC 2017-03-09 08:00:00
Encoded date                   : UTC 2024-02-17 17:18:52
Tagged date                    : UTC 2024-02-17 17:18:52
Copyright                      : ℗ 2017 Warner Records Inc.
Cover                          : Yes
Rating                         : Explicit
GenreID                        : 1614
AlbumTitleID                   : 148662
AppleStoreCatalogID            : 1213487864

Video
ID                             : 2
Format                         : AVC
Format/Info                    : Advanced Video Codec
Format profile                 : High@L4
Format settings                : CABAC / 5 Ref Frames
Format settings, CABAC         : Yes
Format settings, Reference fra : 5 frames
Codec ID                       : avc1
Codec ID/Info                  : Advanced Video Coding
Duration                       : 2 min 48 s
Source duration                : 2 min 48 s
Bit rate                       : 6 677 kb/s
Maximum bit rate               : 14.3 Mb/s
Width                          : 1 920 pixels
Height                         : 724 pixels
Display aspect ratio           : 2.652
Frame rate mode                : Variable
Frame rate                     : 23.976 (23976/1000) FPS
Minimum frame rate             : 23.976 FPS
Maximum frame rate             : 8 000.000 FPS
Color space                    : YUV
Chroma subsampling             : 4:2:0
Bit depth                      : 8 bits
Scan type                      : Progressive
Bits/(Pixel*Frame)             : 0.200
Stream size                    : 134 MiB (96%)
Source stream size             : 134 MiB (96%)
Title                          : Core Media Video
Encoded date                   : UTC 2024-02-17 17:18:55
Tagged date                    : UTC 2024-04-30 07:46:16
Color range                    : Limited
Color primaries                : BT.709
Transfer characteristics       : BT.709
Matrix coefficients            : BT.709
mdhd_Duration                  : 168126
Codec configuration box        : avcC

Audio
ID                             : 1
Format                         : AAC LC
Format/Info                    : Advanced Audio Codec Low Complexity
Codec ID                       : mp4a-40-2
Duration                       : 2 min 48 s
Duration_LastFrame             : -20 ms
Bit rate mode                  : Variable
Bit rate                       : 254 kb/s
Maximum bit rate               : 405 kb/s
Channel(s)                     : 2 channels
Channel layout                 : L R
Sampling rate                  : 48.0 kHz
Frame rate                     : 46.875 FPS (1024 SPF)
Compression mode               : Lossy
Stream size                    : 5.09 MiB (4%)
Title                          : Core Media Audio
Encoded date                   : UTC 2024-02-17 17:18:52
Tagged date                    : UTC 2024-04-30 07:46:16
</pre>
</div>
<div class="bbCodeBlock bbCodeVfcHH HiddenContent">
<div class="attribution type">Hidden Content:</div>
<blockquote>You must reply before you can see the hidden data contained here.</blockquote>
</div>
<div class="messageTextEndMarker">&nbsp;</div>
</blockquote>
</article>]]></description>
                <author><![CDATA[Ron001]]></author>
                </item>

                </channel></rss>